<svg viewBox="0 0 400 540" fill="none" xmlns="http://www.w3.org/2000/svg">
  <path d="M 110 180 C 110 80, 230 60, 300 130 C 240 140, 210 200, 220 260 C 230 320, 280 356, 336 350 C 280 420, 160 410, 120 336 C 80 262, 110 260, 110 180 Z" fill="#7C5CFF" stroke="#7C5CFF" stroke-width="40" stroke-linejoin="round" stroke-linecap="round"/>
  <circle cx="168" cy="248" r="11" fill="#0A0A0A"/>
  <circle cx="212" cy="248" r="11" fill="#0A0A0A"/>
  <circle cx="171" cy="245" r="3.2" fill="#ffffff"/>
  <circle cx="215" cy="245" r="3.2" fill="#ffffff"/>
  <path d="M172 278 Q190 290 208 278" stroke="#0A0A0A" stroke-width="4" stroke-linecap="round" fill="none"/>
  <path d="M 90 285 C 58 278 36 292 38 318" stroke="#0A0A0A" stroke-width="4" stroke-linecap="round" fill="none"/>
  <path d="M 38 318 L 28 310 M 38 318 L 26 318 M 38 318 L 28 326" stroke="#0A0A0A" stroke-width="3.5" stroke-linecap="round" fill="none"/>
  <path d="M 242 285 C 274 278 296 292 294 318" stroke="#0A0A0A" stroke-width="4" stroke-linecap="round" fill="none"/>
  <path d="M 294 318 L 304 310 M 294 318 L 306 318 M 294 318 L 304 326" stroke="#0A0A0A" stroke-width="3.5" stroke-linecap="round" fill="none"/>
  <line x1="170" y1="396" x2="160" y2="466" stroke="#0A0A0A" stroke-width="4" stroke-linecap="round"/>
  <line x1="230" y1="396" x2="240" y2="466" stroke="#0A0A0A" stroke-width="4" stroke-linecap="round"/>
  <line x1="90" y1="486" x2="310" y2="486" stroke="#0A0A0A" stroke-width="3" stroke-linecap="round"/>
</svg>
